<svg id="Layer_1" data-name="Layer 1" xmlns="http://www.w3.org/2000/svg" viewBox="0 0 26 23"><defs><style>.cls-1{fill:#15717d;}</style></defs><title>add_to_favourites hover</title><path class="cls-1" d="M13,23.5a2,2,0,0,1-1.42-.6L2.13,13.21a7.58,7.58,0,0,1,0-10.52,7.18,7.18,0,0,1,10.33,0l.55.56.55-.56A7.17,7.17,0,0,1,18.71.5h0a7.16,7.16,0,0,1,5.16,2.19,7.58,7.58,0,0,1,0,10.52L14.42,22.9a2,2,0,0,1-1.42.6ZM7.29,2.5A5.18,5.18,0,0,0,3.56,4.09a5.57,5.57,0,0,0,0,7.72L13,21.5l9.43-9.69a5.57,5.57,0,0,0,0-7.72A5.17,5.17,0,0,0,18.72,2.5h0A5.18,5.18,0,0,0,15,4.09l-2,2-2-2A5.18,5.18,0,0,0,7.29,2.5Z"/></svg>