<svg id="Layer_1" data-name="Layer 1" xmlns="http://www.w3.org/2000/svg" viewBox="0 0 26 23"><defs><style>.cls-1{fill:#544f40;}</style></defs><title>add_to_favourites</title><g id="add_to_favourites" transform="translate(0.000000, -1.000000)"><path d="M13,24 C12.4655082,23.9977812 11.9541429,23.7817113 11.58,23.4 L2.13,13.71 C-0.699451082,10.7740886 -0.699451082,6.12591143 2.13,3.19 C3.48300698,1.78884142 5.34721324,0.99750188 7.295,0.99750188 C9.24278676,0.99750188 11.106993,1.78884142 12.46,3.19 L13.01,3.75 L13.56,3.19 C14.9091459,1.79253617 16.7675545,1.00226143 18.71,1 L18.71,1 C20.6561518,0.99839573 22.5191099,1.78906979 23.87,3.19 C26.6994511,6.12591143 26.6994511,10.7740886 23.87,13.71 L14.42,23.4 C14.0458571,23.7817113 13.5344918,23.9977812 13,24 L13,24 Z M7.29,3 C5.88226746,3.00114368 4.53562917,3.57517985 3.56,4.59 C1.48750927,6.74605181 1.48750927,10.1539482 3.56,12.31 L13,22 L22.43,12.31 C24.5024907,10.1539482 24.5024907,6.74605181 22.43,4.59 C21.459857,3.57920216 20.1210212,3.00541537 18.72,3 L18.72,3 C17.3157411,3.00385645 15.9732203,3.57767585 15,4.59 L13,6.59 L11,4.59 C10.0291914,3.58016427 8.69078349,3.00656087 7.29,3 L7.29,3 Z" id="Shape" fill="#544F40"></path>
<path d="M7.29,3 C5.88226746,3.00114368 4.53562917,3.57517985 3.56,4.59 C1.48750927,6.74605181 1.48750927,10.1539482 3.56,12.31 L13,22 L22.43,12.31 C24.5024907,10.1539482 24.5024907,6.74605181 22.43,4.59 C21.459857,3.57920216 20.1210212,3.00541537 18.72,3 L18.72,3 C17.3157411,3.00385645 15.9732203,3.57767585 15,4.59 L13,6.59 L11,4.59 C10.0291914,3.58016427 8.69078349,3.00656087 7.29,3 L7.29,3 Z" id="Path" fill="#FFFFFF"></path></g></svg>