<svg id="Layer_1" data-name="Layer 1" xmlns="http://www.w3.org/2000/svg" viewBox="0 0 24 24"><defs><style>.cls-1{fill:#f36633;}</style></defs><title>attach_hover</title><path class="cls-1" d="M19.66,20.93a6.29,6.29,0,0,0,0-8.89l-9.5-9.5A4.49,4.49,0,1,0,3.81,8.89l7.61,7.61a2.68,2.68,0,0,0,1.91.79h0a2.7,2.7,0,0,0,1.9-4.6L10,7.51A.9.9,0,0,0,8.78,8.78L14,14a.9.9,0,0,1-.64,1.53h0a.89.89,0,0,1-.63-.26L5.08,7.62A2.69,2.69,0,1,1,8.89,3.81l9.5,9.5A4.49,4.49,0,1,1,12,19.66l-7.5-7.5a.9.9,0,1,0-1.27,1.27l7.5,7.5a6.3,6.3,0,0,0,8.89,0Z"/></svg>