<svg id="Layer_1" data-name="Layer 1" xmlns="http://www.w3.org/2000/svg" viewBox="0 0 30 30"><defs><style>.cls-1{fill:#544f40;}</style></defs><title>category_menu_icon</title><path class="cls-1" d="M27.87,7.27H2.13A2.13,2.13,0,0,1,0,5.14H0A2.06,2.06,0,0,1,2.13,3H27.87A2.13,2.13,0,0,1,30,5.14h0A2.2,2.2,0,0,1,27.87,7.27Z"/><path class="cls-1" d="M27.87,17.06H2.13A2.13,2.13,0,0,1,0,14.94H0a2.13,2.13,0,0,1,2.13-2.13H27.87A2.13,2.13,0,0,1,30,14.94h0A2.2,2.2,0,0,1,27.87,17.06Z"/><path class="cls-1" d="M27.87,27H2.13A2.13,2.13,0,0,1,0,24.86H0a2.13,2.13,0,0,1,2.13-2.13H27.87A2.13,2.13,0,0,1,30,24.86h0A2.2,2.2,0,0,1,27.87,27Z"/></svg>