<svg id="Layer_1" data-name="Layer 1" xmlns="http://www.w3.org/2000/svg" viewBox="0 0 24 24"><defs><style>.cls-1{fill:#fff;}</style></defs><title>info_active_white</title><path class="cls-1" d="M10.72,6a1.55,1.55,0,0,0,1.57,1.55,1.84,1.84,0,0,0,1.86-1.92A1.58,1.58,0,0,0,12.58,4,1.88,1.88,0,0,0,10.72,6Z"/><path class="cls-1" d="M13.78,9.85c0-.74-.33-1.13-1.48-1.13A13,13,0,0,0,9,9.26l-.09,1.42,1.81.31-.87,6.77c0,.22,0,.42,0,.59,0,1,.41,1.66,1.79,1.66a5.7,5.7,0,0,0,3.49-1.55l-.59-1.31a4.74,4.74,0,0,1-1.68.46C13,16.46,13.78,10.31,13.78,9.85Z"/><path class="cls-1" d="M0,12A12,12,0,1,0,12,0,12,12,0,0,0,0,12Zm22,0A10,10,0,1,1,12,2,10,10,0,0,1,22,12Z"/></svg>