<svg id="Layer_1" data-name="Layer 1" xmlns="http://www.w3.org/2000/svg" viewBox="0 0 32 24"><defs><style>.cls-1{fill:#f36633;}</style></defs><title>likes active</title><path class="cls-1" d="M26.5,14.79c0-1.6-1.63-1.72-2.79-1.72,1.63,0,2.21-2.29,1.28-3.44a2.6,2.6,0,0,0-2.21-.69H17.54C17.89,7,19.05,1.72,16.61.69c-3.14-1.15-3,3.21-3.14,4.81a4.21,4.21,0,0,1-.23,2.06c-.23.57-.81.69-1.28,1.15a5,5,0,0,0-1.16,1l-1,1c-.12.11-1.16,2.41-.81,2.41-3,.11-4.19,3.9-2.91,6.3.81,1.6,2.1,1.49,3.61,1.83,1.16.23,1.4.8,2.21,1.49a4.62,4.62,0,0,0,2.79.69c2,0,4-.11,5.82-.23a8,8,0,0,0,2.33-.11c1.75-.69,1.16-2.87-.7-2.87.93,0,2,.23,2.68-.46a1.73,1.73,0,0,0-1-3.09C25,16.74,26.5,16.51,26.5,14.79Z"/></svg>