<svg id="Layer_1" data-name="Layer 1" xmlns="http://www.w3.org/2000/svg" viewBox="0 0 30 30"><defs><style>.cls-1{fill:#544f40;}</style></defs><title>search copy</title><path class="cls-1" d="M28,23.62,19.79,19.5a8.29,8.29,0,0,0,3.36-6.63V8.25a8.22,8.22,0,1,0-16.43,0V13a8.29,8.29,0,0,0,3.36,6.63L1.87,23.75A3.85,3.85,0,0,0,.12,26.37L0,28.13A1.81,1.81,0,0,0,1.74,30H28.26A1.81,1.81,0,0,0,30,28.13l-.12-1.87A4.34,4.34,0,0,0,28,23.63Zm-13.07-5a5.8,5.8,0,0,1-5.73-5.75V9.13A3.09,3.09,0,0,1,12.32,6a15.5,15.5,0,0,0,2.61.25,12.5,12.5,0,0,0,4.85-.87,5.83,5.83,0,0,1,.75,2.88V13a5.51,5.51,0,0,1-5.6,5.62Z"/></svg>