<svg id="Layer_1" data-name="Layer 1" xmlns="http://www.w3.org/2000/svg" viewBox="0 0 8 20"><defs><style>.cls-1{fill:#544f40;}</style></defs><title>skinny_burger_menu</title><path class="cls-1" d="M6.57,4.19H1.43C1.18,4.19,1,3.44,1,2.6H1c0-.92.18-1.6.43-1.6H6.57C6.8,1,7,1.67,7,2.6H7C7,3.44,6.8,4.19,6.57,4.19Z"/><path class="cls-1" d="M6.57,11.55H1.43C1.2,11.55,1,10.88,1,10H1c0-.84.18-1.6.43-1.6H6.57C6.8,8.36,7,9,7,10H7C7,10.79,6.8,11.55,6.57,11.55Z"/><path class="cls-1" d="M6.57,19H1.43C1.2,19,1,18.33,1,17.4H1c0-.84.18-1.6.43-1.6H6.57c.22,0,.43.67.43,1.6H7C7,18.24,6.8,19,6.57,19Z"/></svg>