<svg id="Layer_1" data-name="Layer 1" xmlns="http://www.w3.org/2000/svg" viewBox="0 0 23 23"><defs><style>.cls-1{fill:#f36633;}</style></defs><title>support active</title><path class="cls-1" d="M11.5,0A11.5,11.5,0,1,0,23,11.5,11.52,11.52,0,0,0,11.5,0Zm0,1.36a9.81,9.81,0,0,1,3.8.78L12.86,6.43a6.59,6.59,0,0,0-1.36-.19,6.59,6.59,0,0,0-1.36.19L7.7,2.14a9.81,9.81,0,0,1,3.8-.78ZM6.43,12.86,2.14,15.3a10.19,10.19,0,0,1-.78-3.8,10.2,10.2,0,0,1,.78-3.8l4.29,2.44a6.59,6.59,0,0,0-.19,1.36,7.64,7.64,0,0,0,.19,1.36Zm5.07,8.67a9.82,9.82,0,0,1-3.8-.78l2.44-4.29a6.59,6.59,0,0,0,1.36.19,6.59,6.59,0,0,0,1.36-.19l2.44,4.29a8.86,8.86,0,0,1-3.8.78Zm0-6a4,4,0,1,1,4-4A4,4,0,0,1,11.5,15.5Zm5.07-2.63a6.59,6.59,0,0,0,.19-1.36,6.59,6.59,0,0,0-.19-1.36L20.86,7.7a10.19,10.19,0,0,1,.78,3.8,10.2,10.2,0,0,1-.78,3.8l-4.29-2.44Z"/></svg>