<svg id="Layer_1" data-name="Layer 1" xmlns="http://www.w3.org/2000/svg" xmlns:xlink="http://www.w3.org/1999/xlink" viewBox="0 0 23 23"><defs><style>.cls-1{fill:none;}.cls-2{clip-path:url(#clip-path);}.cls-3{fill:url(#linear-gradient);}.cls-4{fill:#15717d;}</style><clipPath id="clip-path"><path class="cls-1" d="M-31.38-38.48c-5.82,2.23-8.77,6-8.77,11.07,0,8.06,8.15,18.47,16.81,18.47a12.49,12.49,0,0,0,7.57-2.7C-10.56-15.54-3.35-24.78-3.35-32c0-5.87-4.49-8.72-13.73-8.72-3.15,0-9.2.29-14.3,2.26"/></clipPath><linearGradient id="linear-gradient" x1="-55.63" y1="-239.38" x2="-54.99" y2="-239.38" gradientTransform="matrix(34.83, -47.29, -47.29, -34.83, -9415.89, -10976.77)" gradientUnits="userSpaceOnUse"><stop offset="0" stop-color="#ff6605"/><stop offset="0.77" stop-color="#ff660a"/><stop offset="1" stop-color="#ff660a"/></linearGradient></defs><title>support hover</title><g id="Logo_full_colour" data-name="Logo full colour"><g class="cls-2"><polygon class="cls-3" points="-55.28 -20.13 -27.2 -58.37 11.78 -29.55 -16.3 8.69 -55.28 -20.13"/></g></g><path class="cls-4" d="M11.5,0A11.5,11.5,0,1,0,23,11.5,11.52,11.52,0,0,0,11.5,0Zm0,1.36a9.81,9.81,0,0,1,3.8.78L12.86,6.43a6.59,6.59,0,0,0-1.36-.19,6.59,6.59,0,0,0-1.36.19L7.7,2.14a9.81,9.81,0,0,1,3.8-.78ZM6.43,12.86,2.14,15.3a10.19,10.19,0,0,1-.78-3.8,10.2,10.2,0,0,1,.78-3.8l4.29,2.44a6.59,6.59,0,0,0-.19,1.36,7.64,7.64,0,0,0,.19,1.36Zm5.07,8.67a9.82,9.82,0,0,1-3.8-.78l2.44-4.29a6.59,6.59,0,0,0,1.36.19,6.59,6.59,0,0,0,1.36-.19l2.44,4.29a8.86,8.86,0,0,1-3.8.78Zm0-6a4,4,0,1,1,4-4A4,4,0,0,1,11.5,15.5Zm5.07-2.63a6.59,6.59,0,0,0,.19-1.36,6.59,6.59,0,0,0-.19-1.36L20.86,7.7a10.19,10.19,0,0,1,.78,3.8,10.2,10.2,0,0,1-.78,3.8l-4.29-2.44Z"/></svg>