<svg id="Layer_1" data-name="Layer 1" xmlns="http://www.w3.org/2000/svg" viewBox="0 0 83.95 83.95"><defs><style>.cls-1{fill:#15717d;}.cls-2{fill:#fff;}</style></defs><title>support_helpdesk hover</title><circle class="cls-1" cx="41.98" cy="41.98" r="41.98"/><path class="cls-2" d="M41.37,59.85A11.7,11.7,0,0,1,29.69,48.16V40.89a5.63,5.63,0,0,1,5.63-5.57h0a27.55,27.55,0,0,0,6.06.64c4.27,0,8-.87,10.14-2.17a11.59,11.59,0,0,1,1.55,5.79V48c2.33-1.53,3.31-4.16,3.31-8.52v-.21a15,15,0,0,0-30,.34v8.59a15,15,0,0,0,29.58,3.6,13.65,13.65,0,0,1-4.25,1.89A11.69,11.69,0,0,1,41.37,59.85Z"/><path class="cls-2" d="M59.5,37.84h-.05a18.1,18.1,0,0,0-36.15,0,1.56,1.56,0,0,0-1.45,1.54v6.37a1.57,1.57,0,0,0,1.56,1.56h1.43V38.14a16.55,16.55,0,0,1,33.09.76v.54c0,6.7-2.31,10.15-7.81,11.36A2.94,2.94,0,0,0,47.44,49H47.3a2.94,2.94,0,0,0,.13,5.88h.13a2.94,2.94,0,0,0,2.78-2.54c3.81-.79,6.31-2.57,7.72-5.46v.42H59.5l.11,0a1.56,1.56,0,0,0,1.45-1.54V39.41A1.57,1.57,0,0,0,59.5,37.84Z"/></svg>