<svg id="Layer_1" data-name="Layer 1" xmlns="http://www.w3.org/2000/svg" viewBox="0 0 83.95 83.95"><defs><style>.cls-1{fill:#f36633;}.cls-2{fill:#fff;}</style></defs><title>support_upload</title><circle class="cls-1" cx="41.98" cy="41.98" r="41.98"/><path class="cls-2" d="M44.16,33.78a3.46,3.46,0,0,0-4.89,0L27.87,45.18a2.3,2.3,0,0,0,0,3.26l1.63,1.63a2.3,2.3,0,0,0,3.26,0l5.5-5.5V62.29a2.3,2.3,0,0,0,2.3,2.3h2.3a2.3,2.3,0,0,0,2.3-2.3V44.56l5.5,5.5a2.3,2.3,0,0,0,3.26,0l1.63-1.63a2.3,2.3,0,0,0,0-3.26ZM23.29,28.16H60.15a2.3,2.3,0,0,0,0-4.61H23.29a2.3,2.3,0,0,0,0,4.61Z"/></svg>