<svg id="Layer_1" data-name="Layer 1" xmlns="http://www.w3.org/2000/svg" viewBox="0 0 83.95 83.95"><defs><style>.cls-1{fill:#f36633;}.cls-2{fill:#fff;}</style></defs><title>support_getting_started</title><circle class="cls-1" cx="41.98" cy="41.98" r="41.98"/><path class="cls-2" d="M26.57,53.1c-1.16,1.16-3.87,8.06-3.87,8.06s6.9-2.71,8.06-3.87a3,3,0,1,0-4.19-4.19Zm3.94,2.44a25.26,25.26,0,0,1-4.21,2,25.26,25.26,0,0,1,2-4.21,1.55,1.55,0,0,1,2.19,2.19Z"/><path class="cls-2" d="M23.71,45.78l4.51.44.18-.21L35,38.59l-3.41.14a4.71,4.71,0,0,0-3.15,1.38l-5,5A.42.42,0,0,0,23.71,45.78Z"/><path class="cls-2" d="M37.64,55.64l.44,4.51a.42.42,0,0,0,.72.26l5-5a4.71,4.71,0,0,0,1.38-3.15l.14-3.41-7.42,6.56Z"/><circle class="cls-2" cx="45.53" cy="38.32" r="2.37" transform="translate(-13.76 43.42) rotate(-45)"/><path class="cls-2" d="M41.93,32.1,29.09,46.62l4.08,4.08,4.08,4.08L51.76,41.93a31,31,0,0,0,2.79-3L45,29.31A31,31,0,0,0,41.93,32.1ZM47.86,36a3.29,3.29,0,1,1-4.65,0A3.29,3.29,0,0,1,47.86,36Z"/><path class="cls-2" d="M60.61,23.25h0a1.59,1.59,0,0,0-.92-.45h0a31,31,0,0,0-14,5.94l9.44,9.44a31,31,0,0,0,5.94-14h0A1.59,1.59,0,0,0,60.61,23.25Z"/><path class="cls-2" d="M29.31,50.43l3.95,3.95a1.45,1.45,0,0,0,2.05,0h0l-6-6A1.45,1.45,0,0,0,29.31,50.43Z"/></svg>