<svg id="Layer_1" data-name="Layer 1" xmlns="http://www.w3.org/2000/svg" viewBox="0 0 83.95 83.95"><defs><style>.cls-1{fill:#fff;}.cls-2{fill:#15717d;}</style></defs><title>support_FAQ hover</title><rect class="cls-1" x="17.85" y="13.38" width="48.68" height="58.01" rx="12" ry="12"/><path class="cls-2" d="M42,0A42,42,0,1,0,84,42,42,42,0,0,0,42,0Zm4.55,63.87a1.61,1.61,0,0,1-1.61,1.61H39.58A1.61,1.61,0,0,1,38,63.87V58.28a1.61,1.61,0,0,1,1.61-1.61h5.33a1.61,1.61,0,0,1,1.61,1.61Zm3.66-20.39c-3.54,2.44-4.24,3.41-4.24,7.65v.19a1.61,1.61,0,0,1-1.61,1.61H40a1.61,1.61,0,0,1-1.61-1.61c0-2.7.19-7.26,1.8-9.51,2.64-3.79,8.29-4.37,8.29-9.9,0-3.6-3.34-6.11-6.75-6.11-4.37,0-6.94,3-7.48,6.84A1.61,1.61,0,0,1,32.51,34L28,33.51a1.61,1.61,0,0,1-1.41-1.8,17.57,17.57,0,0,1,1-4.36c2.44-6.23,8.16-8.87,14.59-8.87,8,0,15.17,4.76,15.17,13.43C57.39,37.12,54.82,40.27,50.19,43.48Z"/></svg>