<svg id="Layer_1" data-name="Layer 1" xmlns="http://www.w3.org/2000/svg" viewBox="0 0 32 24"><defs><style>.cls-1{fill:#15717d;}</style></defs><title>views hover</title><path class="cls-1" d="M16,1.5c-8.19,0-14.58,9.6-14.85,10a.9.9,0,0,0,0,1c.27.41,6.65,10,14.85,10s14.58-9.6,14.85-10a.9.9,0,0,0,0-1C30.58,11.1,24.16,1.5,16,1.5ZM29,12l-.21.28c-1.89,2.53-6.92,8.41-12.77,8.41S5.12,14.81,3.23,12.28L3,12l.21-.28C5.12,9.19,10.16,3.31,16,3.31s10.88,5.88,12.77,8.41Z"/><path class="cls-1" d="M16,18.7A6.7,6.7,0,1,1,22.77,12,6.74,6.74,0,0,1,16,18.7Zm0-9.86A3.16,3.16,0,1,0,19.2,12,3.18,3.18,0,0,0,16,8.84Z"/></svg>