<svg id="Layer_1" data-name="Layer 1" xmlns="http://www.w3.org/2000/svg" viewBox="0 0 23 23"><defs><style>.cls-1{fill:#f36633;}</style></defs><title>web_broadcasts_active</title><path class="cls-1" d="M19.94,15.3H3.69a1.19,1.19,0,0,0,0,2.38L5,18l.67,4.07a.71.71,0,0,0,.69.66L17,23c.36,0,0,0,1-1l.89-4.28,1.05,0a1.19,1.19,0,0,0,0-2.38Z"/><path class="cls-1" d="M18.18,13.85,18,12.76a1.68,1.68,0,0,0-.85-1.21L14.07,9.83a3.92,3.92,0,0,0,.45-.38H16a.42.42,0,0,0,.37-.62,5,5,0,0,1-.78-3.18V4.55A3.81,3.81,0,1,0,8,4.55v1.1a5,5,0,0,1-.78,3.18.43.43,0,0,0,0,.42.42.42,0,0,0,.36.2H9.12a3.69,3.69,0,0,0,.47.4L6.46,11.55a1.68,1.68,0,0,0-.85,1.21l-.15,1.09a.78.78,0,0,0,.8.85H9.89V13.43a1.28,1.28,0,1,1,.86,0V14.7h6.7A.73.73,0,0,0,18.18,13.85ZM11.81,9.42A2.66,2.66,0,0,1,9.16,6.74V6h0A1.44,1.44,0,0,1,10.6,4.59h1.67a1.44,1.44,0,0,0,1.43-1.44V2.67a2.68,2.68,0,0,1,.77,1.88V6.74A2.66,2.66,0,0,1,11.81,9.42Z"/></svg>